<?xml version="1.0" encoding="utf-8"?>
<!-- Generator: Adobe Illustrator 16.0.0, SVG Export Plug-In . SVG Version: 6.00 Build 0)  -->
<!DOCTYPE svg PUBLIC "-//W3C//DTD SVG 1.1//EN" "http://www.w3.org/Graphics/SVG/1.1/DTD/svg11.dtd">
<svg version="1.1" id="Layer_1" xmlns="http://www.w3.org/2000/svg" xmlns:xlink="http://www.w3.org/1999/xlink" x="0px" y="0px"
	 width="335.983px" height="335.983px" viewBox="0 0 335.983 335.983" enable-background="new 0 0 335.983 335.983"
	 xml:space="preserve">
<g>
	<path fill-rule="evenodd" clip-rule="evenodd" fill="#0000BA" d="M-439.826,147.808c0.12-1.154,0.24-2.309,0.36-3.463
		c0.415,3.124,1.348,6.071,2.674,8.898c2.854,6.083,6.674,11.579,11.565,16.094c7.404,6.834,13.043,14.964,18.519,23.276
		c0.24,0.362,0.49,0.719,0.902,1.014c-0.107-0.277-0.214-0.555-0.32-0.832c-1.96-5.15-3.595-10.398-3.869-15.936
		c-0.265-5.374,0.869-10.588,2.274-15.742c0.274-1.007,0.532-2.023,0.893-3c1.412-3.816,1.551-7.847,2.044-11.817
		c0.111-0.896,0.2-1.794,0.335-3.011c0.215,0.523,0.341,0.765,0.416,1.02c1.909,6.566,3.698,13.163,4.759,19.931
		c0.724,4.623,0.614,9.275,0.433,13.927c-0.177,4.546-0.522,9.091-0.528,13.636c-0.005,5.443,1.422,10.581,4.105,15.475
		c-0.265-0.061-0.453-0.071-0.609-0.146c-9.614-4.616-18.811-9.916-26.56-17.339c-8.639-8.274-14.232-18.3-16.33-30.144
		c-0.474-2.679-0.61-5.417-0.908-8.128c-0.033-0.295-0.103-0.586-0.156-0.88C-439.826,149.698-439.826,148.753-439.826,147.808z"/>
	<path fill-rule="evenodd" clip-rule="evenodd" fill="#0000BA" d="M-305.979,126.719c-2.513-0.273-4.704-1.324-6.669-2.855
		c-1.852-1.442-3.818-2.64-6.042-3.419c-0.385-0.136-0.756-0.438-1.029-0.754c-10.642-12.329-8.544-30.53,4.607-40.11
		c0.234-0.17,0.455-0.361,0.625-0.752c-1.748,0.185-3.502,0.323-5.242,0.563c-7.48,1.034-14.73,2.892-21.587,6.129
		c-9.509,4.491-17.136,11.12-22.804,19.997c-4.939,7.735-15.292,8.739-21.39,2.1c-3.975-4.328-4.602-10.926-1.401-16.032
		c7.86-12.542,18.376-22.214,31.557-28.97c9.896-5.072,20.428-8.042,31.409-9.574c7.938-1.108,15.912-1.492,23.91-1.114
		c17.878,0.847,34.592,5.56,49.743,15.289c12.713,8.163,22.824,18.854,30.664,31.732c0.123,0.201,0.236,0.409,0.346,0.617
		c0.027,0.052,0.023,0.12,0.045,0.246c-2.133,0.765-4.074,1.872-5.641,3.565c-3.109,3.363-4.221,7.298-3.48,11.808
		c0.771,4.7,1.063,9.431,0.506,14.175c-0.264,2.261-0.684,4.504-1.045,6.754c-0.045,0.283-0.156,0.556-0.262,0.918
		c-3.52-1.966-5.977-4.744-6.738-8.623c-0.854-4.333-2.537-8.303-4.612-12.125c-8.603-15.85-21.093-27.292-38.198-33.448
		c-0.284-0.102-0.577-0.181-0.868-0.258c-0.049-0.013-0.114,0.039-0.173,0.061c11.257,11.66,8.318,27.689,2.374,35.167
		c-1.324-0.499-2.44-0.167-3.357,0.99c-0.197,0.251-0.709,0.348-1.082,0.356c-5.183,0.124-9.861,1.598-13.916,4.942
		c-1.83,1.508-4.242,2.415-5.73,2.426c0.509-1.583,1.073-3.16,1.519-4.769c0.58-2.092,0.352-2.415-1.754-2.943
		c-0.193-0.048-0.381-0.109-0.637-0.184c0.097-1.174-0.302-2.326,0.682-3.412c0.854-0.945,0.496-2.468-0.483-3.255
		c-0.99-0.796-2.437-0.742-3.33,0.125c-0.953,0.922-1.115,2.398-0.181,3.368c0.887,0.922,0.466,1.956,0.509,2.951
		c0.006,0.128-0.37,0.314-0.598,0.403c-0.405,0.159-0.841,0.24-1.249,0.396c-0.745,0.288-1.027,0.821-0.786,1.608
		C-307.181,122.737-306.6,124.668-305.979,126.719z"/>
	<path fill-rule="evenodd" clip-rule="evenodd" fill="#0000BA" d="M-413.546,308.194c1.171-3.044,2.279-5.931,3.392-8.816
		c7.596-19.699,15.188-39.401,22.797-59.096c0.703-1.82,0.231-1.484,2.193-1.496c3.577-0.02,7.153,0.021,10.729-0.026
		c0.807-0.01,1.156,0.233,1.451,1c8.389,21.878,16.809,43.744,25.223,65.613c0.336,0.875,0.664,1.754,1.04,2.75
		c-0.405,0.029-0.72,0.069-1.036,0.069c-3.88,0.004-7.76-0.02-11.641,0.021c-0.764,0.008-1.122-0.222-1.389-0.944
		c-1.542-4.169-3.153-8.313-4.697-12.48c-0.241-0.65-0.548-0.856-1.235-0.854c-8.84,0.024-17.68,0.025-26.521,0
		c-0.721-0.002-1.053,0.218-1.314,0.893c-1.601,4.146-3.269,8.267-4.869,12.414c-0.27,0.697-0.583,0.983-1.368,0.975
		C-404.974,308.171-409.155,308.194-413.546,308.194z M-379.998,257.182c-3.153,8.071-6.216,15.906-9.307,23.816
		c6.254,0,12.342,0,18.557,0C-373.823,273.082-376.863,265.253-379.998,257.182z"/>
	<path fill-rule="evenodd" clip-rule="evenodd" fill="#0000BA" d="M-431.54,184.596c4.124,8.813,10.736,14.686,19.186,18.764
		c7.765,3.748,15.456,7.651,23.134,11.573c2.275,1.161,4.397,2.619,6.593,3.936c0.389,0.234,0.79,0.445,1.248,0.547
		c-1.672-1.869-3.414-3.68-5-5.619c-2.692-3.29-5.439-6.62-6.458-10.855c-0.982-4.083-1.775-8.226-2.37-12.382
		c-0.51-3.562-0.624-7.179-0.907-10.773c-0.025-0.316-0.003-0.637-0.003-0.956c0.081-0.035,0.162-0.07,0.243-0.105
		c0.645,0.841,1.344,1.646,1.928,2.528c2.896,4.373,4.92,9.196,7.156,13.912c2.581,5.444,5.037,10.96,7.915,16.246
		c3.646,6.698,9.129,11.7,15.699,15.525c0.219,0.128,0.434,0.266,0.65,0.399c-0.022,0.093-0.043,0.185-0.067,0.278
		c-4.807-0.551-9.623-1.037-14.418-1.667c-7.321-0.963-14.542-2.45-21.592-4.672c-6.261-1.973-12.313-4.408-17.502-8.569
		c-7.437-5.964-11.852-13.84-14.357-22.9c-0.331-1.199-0.563-2.426-0.826-3.644C-431.388,185.705-431.439,185.239-431.54,184.596z"
		/>
	<path fill-rule="evenodd" clip-rule="evenodd" fill="#0000BA" d="M-418.966,157.416c-0.804-7.643,0.203-14.965,3.49-21.909
		c0.905-1.91,1.981-3.764,3.174-5.51c3.566-5.219,6.048-10.956,8.286-16.82c0.116-0.303,0.238-0.603,0.446-1.129
		c0.677,2.211,0.65,4.249,0.514,6.274c-0.374,5.573-1.616,10.997-3.079,16.362c-1.923,7.048-4.063,14.038-5.939,21.099
		c-1.694,6.381-1.97,12.902-1.294,19.464c0.018,0.166,0.019,0.333,0.033,0.623c-0.195-0.153-0.336-0.226-0.425-0.339
		c-7.623-9.6-14.738-19.545-20.448-30.428c-2.355-4.488-4.371-9.095-5.039-14.204c-0.828-6.329-0.138-12.515,1.583-18.604
		c0.728-2.58,1.688-5.095,2.544-7.639c0.113,0.024,0.226,0.05,0.34,0.074c-0.071,0.658-0.148,1.315-0.211,1.974
		c-0.57,6.003,0.875,11.639,3.158,17.112c0.558,1.335,1.149,2.666,1.847,3.931c4.252,7.696,6.637,16.105,9.366,24.383
		C-420.042,153.881-419.516,155.653-418.966,157.416z"/>
	<path fill-rule="evenodd" clip-rule="evenodd" fill="#0000BA" d="M-416.305,66.164c-1.616,4.69-2.971,9.354-3.349,14.214
		c-0.237,3.044-0.166,6.124-0.045,9.181c0.292,7.345,0.584,14.687-0.125,22.023c-0.081,0.826-0.314,1.653-0.582,2.444
		c-0.57,1.684-0.511,3.35,0.107,5.075c0.107-0.424,0.218-0.848,0.319-1.273c1.098-4.648,2.628-9.118,5.27-13.151
		c1.827-2.789,4.384-4.836,6.937-6.88c4.736-3.795,9.52-7.53,14.264-11.314c0.892-0.712,1.695-1.536,2.596-2.36
		c0,0.142,0.034,0.26-0.005,0.343c-4.328,9.14-8.747,18.238-14.735,26.444c-2.123,2.909-4.601,5.556-6.798,8.414
		c-3.598,4.677-6.54,9.726-8.221,15.432c-0.242,0.82-0.429,1.656-0.78,2.492c-0.307-1.64-0.604-3.28-0.92-4.918
		c-0.754-3.917-1.877-7.708-3.629-11.313c-2.985-6.143-4.497-12.629-4.061-19.471c0.818-12.837,4.714-24.545,13.014-34.58
		C-416.817,66.685-416.554,66.43-416.305,66.164z"/>
	<path fill-rule="evenodd" clip-rule="evenodd" fill="#0000BA" d="M-389.456,36.372c-5.289,5.75-8.595,12.365-9.679,19.979
		c-0.979,6.876-3.166,13.347-5.809,19.708c-1.25,3.01-2.496,6.023-3.641,9.103c0.247-0.368,0.497-0.733,0.739-1.103
		c3.559-5.446,7.726-10.298,13.356-13.734c2.979-1.816,6.37-2.524,9.596-3.68c2.756-0.988,5.511-1.988,8.212-3.113
		c1.161-0.483,2.183-1.297,3.205-1.923c-0.059,0.106-0.173,0.348-0.322,0.569c-6.157,9.153-13.979,16.439-23.823,21.542
		c-5.852,3.033-11.152,6.844-15.327,12.038c-0.816,1.016-1.509,2.131-2.411,3.417c0.27-1.486,0.491-2.748,0.729-4.007
		c0.573-3.036,0.595-6.086,0.435-9.166c-0.439-8.438,0.102-16.787,2.792-24.872c3.114-9.359,9.436-16.206,17.308-21.793
		C-392.6,38.275-391.006,37.357-389.456,36.372z"/>
	<path fill-rule="evenodd" clip-rule="evenodd" fill="#0000BA" d="M-351.736,41.104c-1.121,2.792-2.692,5.279-4.644,7.527
		c-3.613,4.158-8.101,6.945-13.38,8.484c-7.208,2.101-14.439,4.138-21.377,7.045c-2.379,0.997-4.652,2.248-6.932,3.363
		c0.021,0.148-0.033,0.037,0.001-0.026c2.707-4.974,4.254-10.391,6.062-15.713c1.627-4.793,3.774-9.349,6.421-13.688
		c3.116-5.109,7.695-8.063,13.305-9.689c3.669-1.063,7.396-1.761,11.435-2.004c-1.215,0.564-2.251,1.009-3.254,1.518
		c-4.643,2.351-8.356,5.709-11.226,10.078c-3.682,5.604-7.499,11.118-11.256,16.672c-0.069,0.102-0.122,0.213-0.236,0.412
		c0.186-0.044,0.288-0.039,0.35-0.087c4.293-3.425,9.319-5.122,14.581-6.395c4.607-1.116,9.152-2.497,13.699-3.842
		c1.183-0.35,2.32-0.924,3.399-1.537C-353.746,42.627-352.804,41.854-351.736,41.104z"/>
	<path fill-rule="evenodd" clip-rule="evenodd" fill="#0000BA" d="M-329.868,23.842c-2.411,1.11-4.868,2.129-7.22,3.353
		c-2.895,1.506-5.718,3.153-8.537,4.802c-0.895,0.523-1.777,1.148-2.487,1.896c-3.639,3.833-8.212,6.09-13.118,7.691
		c-4.882,1.592-9.843,2.946-14.859,4.231c1.262-1.34,2.571-2.638,3.773-4.029c2.161-2.496,4.317-5.001,6.369-7.585
		c2.769-3.487,6.378-5.759,10.397-7.462c6.513-2.761,13.364-3.589,20.373-3.418c1.778,0.044,3.554,0.188,5.331,0.287
		C-329.853,23.685-329.86,23.764-329.868,23.842z"/>
	<path fill-rule="evenodd" clip-rule="evenodd" fill="#0000BA" d="M-280.665,121.328c-3.157,4.522-15.459,8.908-20.737,7.346
		c3.484-0.62,6.128-2.474,8.792-4.39c3.379-2.432,7.341-3.087,11.42-3.146C-281.043,121.136-280.894,121.242-280.665,121.328z"/>
</g>
<g>
	<path fill-rule="evenodd" clip-rule="evenodd" fill="#F6D903" d="M-200.466,128.42c-0.195,1.871-0.373,3.745-0.588,5.614
		c-1.041,9.057-3.662,17.653-7.607,25.855c-5.02,10.435-11.844,19.584-19.848,27.902c-8.643,8.982-18.278,16.663-29.334,22.491
		c-10.667,5.623-21.971,9.177-33.975,10.484c-8.056,0.876-16.079,0.704-24.104-0.4c-10.975-1.51-21.407-4.705-31.22-9.865
		c-2.987-1.571-5.881-3.31-8.289-5.721c-5.493-5.504-4.994-14.839,1.036-19.754c4.78-3.897,11.846-4.038,16.69-0.229
		c2.612,2.054,5.585,3.377,8.616,4.59c9.778,3.913,19.935,5.671,30.461,5.162c7.816-0.378,15.33-2.124,22.54-5.169
		c0.248-0.105,0.49-0.219,0.73-0.338c0.053-0.026,0.082-0.097,0.182-0.228c-9.021-0.794-16.074-4.871-21.308-12.513
		c1.635,0,3.035,0,4.514,0c0-0.724,0-1.345,0-2.128c-1.291,0-2.591,0-3.894,0c-2.125,0-2.125,0-2.796-2.331c2.238,0,4.434,0,6.7,0
		c0-0.978,0-1.796,0-2.71c-1.551,0-3.057,0-4.653,0c-0.202-1.676,1.25-0.597,1.707-1.279c0-0.164,0-0.488,0-0.921
		c-1.74,0-3.478,0-5.187,0c-2.831-11.514,3.684-26.366,17.759-31.02c-0.392,1.604-0.755,3.124-1.136,4.639
		c-0.758,3.026-1.622,6.031-2.22,9.088c-0.151,0.771,0.362,1.833,0.874,2.538c1.107,1.519,2.812,2.174,4.614,2.447
		c2.76,0.417,5.451,0.142,7.6-1.805c0.819-0.743,1.375-1.901,1.729-2.977c0.188-0.572-0.33-1.366-0.504-2.066
		c-1.039-4.168-2.07-8.338-3.099-12.509c-0.057-0.223-0.055-0.46-0.099-0.849c9.062-0.146,16.518,3.125,22.193,10.103
		c5.667,6.969,7.136,14.995,5.301,23.718c0.128,0.099,0.256,0.198,0.384,0.297c0.15-0.301,0.239-0.658,0.458-0.896
		c7.261-7.907,13.151-16.644,16.477-26.959c1.936-6.009,2.84-12.167,2.535-18.466c-0.125-2.606-0.656-5.19-0.912-7.793
		c-0.363-3.684,0.453-7.074,2.811-10.003c2.393-2.975,5.506-4.632,9.307-5.002c0.195-0.02,0.383-0.098,0.572-0.149
		c0.406,0,0.811,0,1.215,0c0.225,0.057,0.445,0.141,0.674,0.167c5.982,0.688,10.525,4.753,11.75,10.598
		c0.33,1.578,0.527,3.187,0.723,4.789c0.24,1.964,0.416,3.938,0.621,5.906C-200.466,123.291-200.466,125.856-200.466,128.42z"/>
	<path fill-rule="evenodd" clip-rule="evenodd" fill="#F6D903" d="M-260.723,238.814c0.435,0,0.799,0,1.163,0
		c4.924,0,9.854-0.145,14.771,0.046c3.789,0.148,7.618,0.431,11.333,1.162c7.201,1.417,12.307,6.992,13.537,14.238
		c0.682,4.015,0.705,8.026-0.713,11.877c-2.568,6.977-7.869,10.794-14.998,12.019c-3.301,0.567-6.711,0.489-10.071,0.69
		c-0.569,0.035-1.139,0.005-1.845,0.005c0,9.808,0,19.534,0,29.334c-4.466,0-8.792,0-13.176,0
		C-260.723,285.089-260.723,262.032-260.723,238.814z M-247.496,266.113c3.35-0.19,6.661-0.179,9.909-0.62
		c3.269-0.444,5.167-2.932,5.269-6.204c0.111-3.528-1.617-6.034-4.861-6.901c-3.366-0.9-6.812-0.655-10.317-0.642
		C-247.496,256.492-247.496,261.161-247.496,266.113z"/>
	<path fill-rule="evenodd" clip-rule="evenodd" fill="#F6D903" d="M-272.036,149.142c-1.984-0.124-3.791-0.236-5.679-0.354
		c0-4.643,0-9.31,0-14.06c0.646-0.087,1.301-0.175,2.067-0.278C-274.442,139.352-273.252,144.192-272.036,149.142z"/>
	<path fill-rule="evenodd" clip-rule="evenodd" fill="#F6D903" d="M-284.562,149.155c0.377-1.618,0.74-3.208,1.125-4.792
		c0.61-2.51,1.301-5.003,1.828-7.53c0.229-1.107,0.732-1.653,1.828-1.725c0.295-0.018,0.587-0.109,0.942-0.178
		c0,4.628,0,9.205,0,13.846C-280.71,148.9-282.573,149.023-284.562,149.155z"/>
</g>
<g>
	<path fill-rule="evenodd" clip-rule="evenodd" fill="#760100" d="M-396.934,131.007c0.204-2.447,0.36-4.899,0.62-7.34
		c1.001-9.416,3.41-18.465,7.158-27.159c0.05-0.116,0.143-0.212,0.256-0.373c-0.219,7.79,2.701,12.775,8.731,14.942
		c4.971,1.786,12.186,0.77,16.406-6.026c-3.554,7.734-5.679,15.824-6.251,24.621c0.598-0.867,1.017-1.501,1.461-2.116
		c9.115-12.625,26.845-15.081,39.068-5.445c0.657,0.518,0.689,0.987,0.513,1.695c-2.006,8.047-3.994,16.1-5.976,24.153
		c-0.653,2.65,0.232,4.44,2.939,5.611c3.136,1.355,6.221,1.196,9.171-0.635c1.264-0.785,1.81-2.073,2.417-3.323
		c0.036-0.074,0-0.192-0.024-0.286c-1.641-6.542-3.284-13.085-4.924-19.629c-0.374-1.492-0.736-2.988-1.119-4.549
		c6.883,6.631,10.823,21.025,2.731,33.375c-8.516,12.996-27.746,16.809-40.782,5.553c2.398,7.255,5.723,14.057,10.172,20.369
		c-0.2,0.209-0.366,0.41-0.559,0.581c-6.347,5.672-6.151,15.248,0.461,20.628c4.545,3.697,9.776,6.186,15.166,8.355
		c6.925,2.788,14.086,4.744,21.466,5.895c0.291,0.045,0.572,0.148,0.944,0.248c-0.4,2.663-1.467,4.963-3.276,6.85
		c-3.932,4.103-8.706,5.426-14.129,3.7c-19.975-6.359-35.054-18.895-45.814-36.736c-7.565-12.547-12.384-26.159-14.966-40.54
		c-0.885-4.929-1.175-9.965-1.737-14.952c-0.037-0.33-0.084-0.66-0.126-0.99C-396.934,135.327-396.934,133.167-396.934,131.007z"/>
	<path fill-rule="evenodd" clip-rule="evenodd" fill="#760100" d="M-272.594,250.8c-3.072,2.932-6.119,5.838-9.175,8.754
		c-1.391-1.232-2.7-2.487-4.105-3.621c-5.403-4.353-11.54-6.549-18.53-6.279c-11.534,0.447-21.053,9.418-22.116,20.94
		c-0.632,6.86,0.775,13.201,5.383,18.491c5.077,5.831,11.7,8.151,19.321,7.974c6.681-0.155,12.231-2.904,17.093-7.292
		c0.95-0.858,1.889-1.728,2.903-2.654c2.983,3.117,5.957,6.222,8.954,9.352c-6.232,6.099-12.997,11.124-21.773,12.584
		c-10.354,1.723-20.366,0.889-29.375-5.018c-9.304-6.102-14.458-14.857-15.633-25.923c-0.673-6.319-0.2-12.531,2.099-18.51
		c3.167-8.236,8.858-14.232,16.606-18.309c15.865-8.349,35.754-4.705,47.663,8.691C-273.058,250.229-272.853,250.49-272.594,250.8z"
		/>
	<path fill-rule="evenodd" clip-rule="evenodd" fill="#760100" d="M-333.652,54.536c-21.027,4.908-38.381,15.444-51.126,33.156
		c0.342-0.595,0.672-1.197,1.026-1.786c7.385-12.312,16.771-22.769,28.697-30.851c2.652-1.797,5.403-3.474,8.551-4.261
		c4.528-1.132,8.606-0.146,12.193,2.853c0.257,0.216,0.541,0.401,0.812,0.6C-333.549,54.343-333.6,54.439-333.652,54.536z"/>
	<path fill-rule="evenodd" clip-rule="evenodd" fill="#760100" d="M-328.372,148.543c-1.964,0.122-3.835,0.239-5.812,0.362
		c1.909-7.776,3.808-15.515,5.708-23.255c0.035,0.003,0.07,0.007,0.104,0.011C-328.372,133.273-328.372,140.884-328.372,148.543z"/>
	<path fill-rule="evenodd" clip-rule="evenodd" fill="#760100" d="M-327.166,126.352c1.841,7.501,3.683,15.003,5.531,22.539
		c-1.929-0.119-3.767-0.231-5.694-0.351c0-7.367,0-14.754,0-22.142C-327.274,126.383-327.221,126.367-327.166,126.352z"/>
</g>
<g>
	<path fill-rule="evenodd" clip-rule="evenodd" fill="#E1ECF8" d="M-270.933,149.824c-1.859,0.232-3.715,0.625-5.577,0.66
		c-2.655,0.051-5.315-0.145-7.97-0.269c-0.481-0.022-0.953-0.209-1.439-0.323c2.25-9.129,4.472-18.138,6.699-27.177
		c0.438,0,0.833,0,1.372,0c0.472,1.904,0.958,3.851,1.437,5.799c1.646,6.699,3.285,13.402,4.947,20.098
		c0.088,0.358,0.35,0.674,0.532,1.01C-270.933,149.689-270.933,149.757-270.933,149.824z M-278.93,148.777
		c0-7.779,0-15.507,0-23.234c-0.056-0.013-0.111-0.026-0.167-0.039c-1.928,7.876-3.855,15.752-5.799,23.692
		C-282.849,149.051-280.92,148.917-278.93,148.777z M-272.166,149.184c-1.904-7.779-3.792-15.491-5.679-23.203
		c-0.059,0.008-0.116,0.017-0.174,0.026c0,7.58,0,15.159,0,22.777C-276.055,148.917-274.162,149.047-272.166,149.184z"/>
	<path fill-rule="evenodd" clip-rule="evenodd" fill="#E1ECF8" d="M-320.416,149.83c-2.411,0.96-12.496,0.946-14.791-0.029
		c0.987-4.057,1.969-8.12,2.965-12.18c1.135-4.625,2.275-9.251,3.445-13.868c0.099-0.389,0.371-0.912,0.69-1.031
		c0.666-0.247,1.029,0.103,1.212,0.864c1.543,6.392,3.137,12.77,4.717,19.152C-321.599,145.078-321.016,147.417-320.416,149.83z
		 M-328.253,125.676c-0.049-0.007-0.097-0.015-0.146-0.021c-1.916,7.815-3.832,15.629-5.764,23.507
		c2.076-0.14,3.972-0.268,5.91-0.398C-328.253,141.029-328.253,133.352-328.253,125.676z M-327.348,148.769
		c1.992,0.13,3.857,0.251,5.857,0.38c-1.922-7.819-3.824-15.553-5.725-23.287c-0.044,0.013-0.089,0.025-0.132,0.038
		C-327.348,133.502-327.348,141.104-327.348,148.769z"/>
	<path fill-rule="evenodd" clip-rule="evenodd" fill="#E1ECF8" d="M-304.883,116.353c0.835,0,1.622,0,2.471,0
		c0,0.673,0,1.421,0,2.218c-0.826,0-1.619,0-2.471,0C-304.883,117.809-304.883,117.057-304.883,116.353z"/>
</g>
<g>
	<path fill-rule="evenodd" clip-rule="evenodd" d="M-315.235,176.176c0-0.701,0-1.402,0-2.167c7.71,0,15.349,0,23.07,0
		c0,0.617,0,1.237,0,1.956c-1.463,0.069-2.954,0.14-4.446,0.211C-302.818,176.176-309.027,176.176-315.235,176.176z"/>
	<path fill-rule="evenodd" clip-rule="evenodd" d="M-271.101,150.06c-0.695,2.296-2.38,3.512-4.583,4.095
		c-2.967,0.786-5.813,0.544-8.398-1.25c-1.175-0.816-1.75-1.86-1.759-3.021c4.918,0.715,9.831,0.772,14.741-0.027
		C-271.101,149.925-271.101,149.992-271.101,150.06z"/>
	<path fill-rule="evenodd" clip-rule="evenodd" d="M-305.791,128.667c-3.431-0.429-6.309-1.986-8.986-4.084
		c-2.873-2.251-6.275-3.194-9.872-3.449c-0.377-0.027-0.873,0.226-1.157,0.507c-1.045,1.033-2.711,1.121-3.732,0.121
		c-1.077-1.055-1.036-2.771,0.091-3.771c1.074-0.954,2.698-0.77,3.715,0.312c0.342,0.365,0.907,0.68,1.396,0.723
		c4.446,0.388,8.474,1.762,11.959,4.646c1.953,1.615,4.529,2.615,6.298,2.664c-0.524-1.716-1.091-3.423-1.56-5.155
		c-0.458-1.683-0.16-2.314,1.576-2.497c1.744-0.183,3.553-0.109,5.292,0.14c1.289,0.186,1.506,0.704,1.184,1.963
		c-0.47,1.843-1.054,3.657-1.603,5.527c2.042-0.409,3.958-1.217,5.574-2.563c3.991-3.325,8.638-4.712,13.735-4.848
		c0.589-0.015,1.036-0.127,1.451-0.665c0.91-1.178,2.573-1.235,3.675-0.243c1.05,0.947,1.146,2.597,0.208,3.641
		c-0.959,1.07-2.676,1.184-3.683,0.094c-0.594-0.64-1.21-0.706-1.964-0.667c-4.46,0.233-8.519,1.498-12.024,4.393
		c-1.895,1.566-4.119,2.546-6.546,3.009c-0.532,0.102-0.82,0.269-0.82,0.895c0.02,12.281,0.019,24.562,0.023,36.842
		c0,0.099,0.029,0.199,0.063,0.402c2.09,0,4.196,0,6.411,0c0.02,0.446,0.036,0.794,0.046,1.03c-0.481,0.682-1.936-0.436-1.774,1.226
		c1.544,0,3.052,0,4.643,0c0,0.899,0,1.718,0,2.638c-7.627,0-15.271,0-22.989,0c0-0.816,0-1.64,0-2.581c1.504,0,3.036,0,4.627,0
		c0.171-1.561-1.045-0.74-1.654-1.178c-0.011-0.224-0.028-0.577-0.052-1.032c2.158,0,4.267,0,6.447,0
		C-305.791,153.981-305.791,141.354-305.791,128.667z"/>
	<path fill-rule="evenodd" clip-rule="evenodd" d="M-335.291,149.835c4.982,0.836,9.89,0.794,14.799,0.069
		c0.247,1.938-2.463,4.502-6.674,4.74C-331.535,154.891-335.021,152.846-335.291,149.835z"/>
	<path fill-rule="evenodd" clip-rule="evenodd" d="M-303.631,111.115c1.415,0.013,2.587,1.154,2.602,2.539
		c0.016,1.532-1.138,2.645-2.702,2.606c-1.488-0.037-2.544-1.099-2.535-2.554C-306.258,112.229-305.112,111.103-303.631,111.115z"/>
</g>
<g>
	<g>
		<path fill-rule="evenodd" clip-rule="evenodd" fill="#0000BA" d="M14.063,188.03c0.156-1.492,0.311-2.985,0.468-4.476
			c0.535,4.039,1.742,7.847,3.456,11.502c3.688,7.863,8.628,14.968,14.948,20.804c9.572,8.835,16.862,19.344,23.94,30.089
			c0.31,0.468,0.632,0.929,1.167,1.31c-0.14-0.359-0.278-0.717-0.415-1.076c-2.534-6.657-4.647-13.441-5.001-20.6
			c-0.344-6.946,1.123-13.687,2.939-20.349c0.354-1.301,0.688-2.615,1.155-3.877c1.826-4.933,2.005-10.143,2.643-15.276
			c0.143-1.157,0.259-2.319,0.433-3.892c0.277,0.676,0.442,0.989,0.538,1.318c2.467,8.488,4.779,17.016,6.151,25.765
			c0.936,5.975,0.795,11.99,0.56,18.003c-0.228,5.876-0.675,11.751-0.682,17.627c-0.008,7.036,1.838,13.677,5.306,20.003
			c-0.343-0.079-0.584-0.091-0.786-0.188c-12.429-5.967-24.316-12.817-34.335-22.415c-11.166-10.695-18.397-23.655-21.108-38.966
			c-0.612-3.462-0.789-7.003-1.175-10.506c-0.042-0.381-0.132-0.758-0.202-1.138C14.063,190.474,14.063,189.252,14.063,188.03z"/>
		<path fill-rule="evenodd" clip-rule="evenodd" fill="#0000BA" d="M187.084,160.77c-3.25-0.353-6.082-1.711-8.622-3.69
			c-2.394-1.864-4.935-3.413-7.809-4.42c-0.498-0.176-0.978-0.566-1.331-0.975c-13.755-15.938-11.045-39.465,5.956-51.849
			c0.304-0.22,0.588-0.467,0.809-0.973c-2.261,0.239-4.527,0.417-6.777,0.729c-9.67,1.336-19.042,3.738-27.906,7.923
			c-12.29,5.805-22.15,14.374-29.477,25.849c-6.385,9.999-19.768,11.297-27.651,2.715c-5.139-5.594-5.948-14.123-1.812-20.724
			c10.16-16.213,23.755-28.715,40.794-37.449c12.791-6.557,26.406-10.396,40.601-12.376c10.262-1.433,20.569-1.93,30.906-1.44
			c23.11,1.095,44.717,7.188,64.302,19.764c16.435,10.552,29.504,24.371,39.638,41.02c0.16,0.26,0.306,0.528,0.447,0.797
			c0.035,0.068,0.03,0.156,0.058,0.318c-2.757,0.989-5.267,2.42-7.291,4.608c-4.02,4.347-5.456,9.434-4.499,15.264
			c0.997,6.076,1.374,12.191,0.653,18.325c-0.341,2.922-0.883,5.822-1.351,8.73c-0.058,0.366-0.202,0.719-0.338,1.187
			c-4.55-2.541-7.727-6.132-8.711-11.146c-1.104-5.602-3.278-10.733-5.962-15.674c-11.12-20.489-27.267-35.28-49.377-43.237
			c-0.366-0.132-0.745-0.234-1.123-0.334c-0.063-0.017-0.146,0.05-0.222,0.079c14.55,15.072,10.753,35.793,3.067,45.459
			c-1.712-0.645-3.154-0.216-4.341,1.279c-0.255,0.325-0.916,0.449-1.398,0.46c-6.699,0.161-12.748,2.066-17.989,6.389
			c-2.364,1.95-5.482,3.122-7.406,3.136c0.658-2.047,1.388-4.085,1.963-6.164c0.751-2.705,0.455-3.122-2.267-3.804
			c-0.25-0.062-0.492-0.141-0.823-0.238c0.125-1.517-0.392-3.007,0.881-4.41c1.104-1.222,0.642-3.191-0.624-4.208
			c-1.279-1.03-3.149-0.959-4.304,0.161c-1.232,1.192-1.442,3.1-0.235,4.354c1.146,1.192,0.604,2.528,0.66,3.815
			c0.007,0.166-0.479,0.406-0.774,0.521c-0.524,0.205-1.087,0.31-1.614,0.512c-0.963,0.373-1.327,1.062-1.016,2.078
			C185.529,155.622,186.28,158.118,187.084,160.77z"/>
		<path fill-rule="evenodd" clip-rule="evenodd" fill="#0000BA" d="M24.773,235.586c5.331,11.391,13.878,18.983,24.802,24.255
			c10.037,4.844,19.979,9.891,29.904,14.96c2.941,1.501,5.686,3.385,8.522,5.087c0.503,0.303,1.021,0.575,1.612,0.708
			c-2.162-2.416-4.413-4.757-6.463-7.264c-3.479-4.253-7.029-8.558-8.349-14.032c-1.27-5.277-2.295-10.633-3.063-16.005
			c-0.66-4.604-0.807-9.28-1.174-13.926c-0.032-0.409-0.003-0.823-0.003-1.236c0.104-0.046,0.208-0.09,0.313-0.136
			c0.833,1.087,1.737,2.128,2.492,3.268c3.744,5.653,6.36,11.888,9.251,17.983c3.335,7.038,6.511,14.167,10.23,21.001
			c4.712,8.658,11.801,15.125,20.294,20.069c0.282,0.166,0.56,0.343,0.84,0.516c-0.028,0.12-0.057,0.239-0.087,0.359
			c-6.213-0.712-12.438-1.34-18.639-2.155c-9.463-1.245-18.797-3.167-27.911-6.04c-8.092-2.55-15.916-5.698-22.624-11.076
			c-9.613-7.709-15.32-17.891-18.559-29.603c-0.428-1.55-0.728-3.136-1.068-4.71C24.97,237.019,24.904,236.417,24.773,235.586z"/>
		<path fill-rule="evenodd" clip-rule="evenodd" fill="#0000BA" d="M41.027,200.45c-1.039-9.88,0.262-19.345,4.512-28.321
			c1.172-2.469,2.563-4.865,4.104-7.122c4.609-6.746,7.817-14.162,10.711-21.742c0.149-0.392,0.308-0.779,0.576-1.46
			c0.876,2.858,0.841,5.492,0.666,8.11c-0.483,7.204-2.09,14.215-3.98,21.15c-2.487,9.111-5.253,18.146-7.678,27.273
			c-2.189,8.249-2.545,16.678-1.674,25.161c0.023,0.215,0.024,0.431,0.042,0.805c-0.252-0.199-0.434-0.293-0.549-0.439
			c-9.854-12.41-19.05-25.265-26.434-39.333c-3.045-5.802-5.649-11.757-6.513-18.362c-1.071-8.181-0.178-16.178,2.045-24.049
			c0.941-3.335,2.184-6.586,3.29-9.875c0.145,0.031,0.291,0.064,0.438,0.096c-0.092,0.851-0.192,1.7-0.272,2.551
			c-0.737,7.76,1.13,15.045,4.082,22.121c0.721,1.726,1.484,3.446,2.388,5.081c5.497,9.949,8.579,20.819,12.107,31.52
			C39.637,195.881,40.318,198.171,41.027,200.45z"/>
		<path fill-rule="evenodd" clip-rule="evenodd" fill="#0000BA" d="M44.469,82.491c-2.091,6.063-3.842,12.092-4.33,18.374
			c-0.306,3.935-0.215,7.917-0.059,11.868c0.379,9.494,0.755,18.985-0.16,28.469c-0.104,1.068-0.406,2.137-0.751,3.16
			c-0.737,2.176-0.661,4.33,0.138,6.561c0.138-0.548,0.281-1.096,0.413-1.646c1.418-6.008,3.396-11.787,6.811-17
			c2.361-3.604,5.668-6.252,8.967-8.895c6.122-4.906,12.305-9.734,18.439-14.625c1.152-0.92,2.191-1.986,3.354-3.051
			c0,0.184,0.045,0.336-0.006,0.444c-5.595,11.815-11.309,23.575-19.049,34.183c-2.744,3.76-5.946,7.182-8.787,10.876
			c-4.649,6.046-8.453,12.572-10.627,19.948c-0.313,1.06-0.555,2.141-1.01,3.222c-0.396-2.119-0.779-4.24-1.188-6.358
			c-0.975-5.063-2.426-9.963-4.69-14.624c-3.858-7.94-5.813-16.325-5.25-25.169c1.058-16.595,6.095-31.729,16.822-44.7
			C43.807,83.165,44.146,82.835,44.469,82.491z"/>
		<path fill-rule="evenodd" clip-rule="evenodd" fill="#0000BA" d="M79.175,43.98c-6.837,7.432-11.109,15.984-12.512,25.827
			c-1.266,8.889-4.093,17.254-7.51,25.477c-1.616,3.891-3.226,7.786-4.707,11.767c0.318-0.476,0.644-0.948,0.957-1.426
			c4.6-7.04,9.984-13.312,17.264-17.754c3.851-2.348,8.236-3.262,12.405-4.756c3.563-1.277,7.124-2.57,10.616-4.025
			c1.5-0.625,2.822-1.677,4.143-2.485c-0.076,0.137-0.225,0.45-0.416,0.735c-7.958,11.832-18.07,21.25-30.795,27.846
			c-7.564,3.92-14.417,8.847-19.813,15.561c-1.055,1.313-1.951,2.755-3.117,4.417c0.349-1.921,0.636-3.552,0.943-5.179
			c0.74-3.924,0.769-7.867,0.562-11.849c-0.568-10.907,0.131-21.7,3.608-32.151c4.026-12.098,12.199-20.949,22.374-28.172
			C75.11,46.441,77.171,45.253,79.175,43.98z"/>
		<path fill-rule="evenodd" clip-rule="evenodd" fill="#0000BA" d="M127.934,50.098c-1.448,3.61-3.479,6.824-6.003,9.729
			c-4.672,5.375-10.472,8.978-17.296,10.968c-9.317,2.716-18.666,5.348-27.633,9.106c-3.078,1.288-6.015,2.906-8.962,4.347
			c0.027,0.191-0.042,0.048,0.002-0.033c3.5-6.43,5.499-13.432,7.834-20.313c2.103-6.196,4.88-12.085,8.302-17.695
			c4.026-6.605,9.946-10.423,17.199-12.525c4.743-1.373,9.561-2.276,14.781-2.591c-1.572,0.729-2.911,1.304-4.208,1.961
			c-6.002,3.039-10.801,7.381-14.511,13.027c-4.759,7.244-9.693,14.372-14.551,21.551c-0.09,0.132-0.158,0.275-0.305,0.533
			c0.24-0.057,0.372-0.05,0.452-0.113c5.55-4.428,12.046-6.621,18.848-8.267c5.956-1.442,11.831-3.228,17.709-4.967
			c1.529-0.452,2.999-1.195,4.395-1.986C125.336,52.066,126.554,51.067,127.934,50.098z"/>
		<path fill-rule="evenodd" clip-rule="evenodd" fill="#0000BA" d="M156.204,27.783c-3.117,1.436-6.293,2.753-9.335,4.333
			c-3.741,1.947-7.391,4.076-11.034,6.207c-1.157,0.676-2.296,1.484-3.216,2.451c-4.702,4.955-10.613,7.873-16.955,9.942
			c-6.313,2.058-12.725,3.808-19.209,5.47c1.632-1.731,3.323-3.41,4.878-5.208c2.793-3.227,5.579-6.465,8.232-9.806
			c3.579-4.507,8.244-7.445,13.44-9.646c8.419-3.569,17.275-4.639,26.335-4.418c2.299,0.056,4.594,0.243,6.891,0.371
			C156.222,27.58,156.214,27.682,156.204,27.783z"/>
		<path fill-rule="evenodd" clip-rule="evenodd" fill="#0000BA" d="M219.808,153.801c-4.083,5.845-19.984,11.515-26.809,9.496
			c4.504-0.802,7.923-3.198,11.366-5.675c4.368-3.144,9.489-3.99,14.763-4.066C219.317,153.553,219.509,153.689,219.808,153.801z"/>
	</g>
	<g>
		<path fill-rule="evenodd" clip-rule="evenodd" fill="#F6D903" d="M323.477,162.969c-0.252,2.418-0.481,4.841-0.76,7.257
			c-1.346,11.708-4.733,22.82-9.834,33.422c-6.488,13.488-15.31,25.316-25.656,36.068c-11.172,11.61-23.628,21.539-37.919,29.074
			c-13.789,7.269-28.4,11.862-43.92,13.552c-10.412,1.133-20.783,0.911-31.157-0.517c-14.187-1.952-27.671-6.083-40.355-12.751
			c-3.863-2.031-7.603-4.279-10.715-7.396c-7.103-7.115-6.456-19.182,1.338-25.536c6.179-5.037,15.313-5.22,21.575-0.296
			c3.377,2.655,7.219,4.365,11.138,5.934c12.639,5.057,25.769,7.33,39.376,6.671c10.104-0.488,19.817-2.744,29.136-6.681
			c0.321-0.136,0.634-0.283,0.944-0.438c0.068-0.034,0.106-0.125,0.236-0.294c-11.662-1.027-20.778-6.296-27.544-16.176
			c2.113,0,3.924,0,5.835,0c0-0.935,0-1.739,0-2.751c-1.67,0-3.352,0-5.034,0c-2.746,0-2.746,0-3.615-3.012c2.894,0,5.731,0,8.661,0
			c0-1.264,0-2.321,0-3.504c-2.005,0-3.952,0-6.015,0c-0.262-2.166,1.616-0.771,2.205-1.653c0-0.212,0-0.632,0-1.191
			c-2.25,0-4.494,0-6.704,0c-3.66-14.884,4.763-34.083,22.956-40.098c-0.506,2.074-0.978,4.038-1.469,5.996
			c-0.98,3.912-2.096,7.796-2.868,11.748c-0.197,0.997,0.467,2.37,1.128,3.281c1.432,1.963,3.636,2.81,5.965,3.163
			c3.567,0.539,7.046,0.184,9.825-2.333c1.058-0.96,1.777-2.458,2.234-3.849c0.244-0.738-0.425-1.766-0.651-2.671
			c-1.344-5.388-2.677-10.778-4.004-16.169c-0.074-0.289-0.072-0.595-0.129-1.097c11.715-0.188,21.354,4.039,28.688,13.06
			c7.324,9.009,9.224,19.384,6.852,30.66c0.167,0.128,0.331,0.256,0.498,0.384c0.192-0.389,0.308-0.85,0.591-1.157
			c9.387-10.222,17-21.516,21.3-34.85c2.502-7.768,3.671-15.729,3.276-23.87c-0.161-3.37-0.847-6.709-1.179-10.074
			c-0.469-4.762,0.586-9.145,3.634-12.932c3.093-3.846,7.116-5.988,12.03-6.466c0.253-0.025,0.494-0.126,0.74-0.193
			c0.524,0,1.047,0,1.569,0c0.291,0.074,0.576,0.182,0.872,0.215c7.732,0.888,13.605,6.145,15.188,13.7
			c0.427,2.04,0.682,4.119,0.934,6.19c0.312,2.539,0.539,5.089,0.803,7.634C323.477,156.338,323.477,159.653,323.477,162.969z"/>
		<path fill-rule="evenodd" clip-rule="evenodd" fill="#F6D903" d="M230.96,189.754c-2.563-0.16-4.9-0.305-7.341-0.458
			c0-6.001,0-12.035,0-18.175c0.834-0.113,1.682-0.227,2.671-0.359C227.85,177.1,229.388,183.356,230.96,189.754z"/>
		<path fill-rule="evenodd" clip-rule="evenodd" fill="#F6D903" d="M214.77,189.771c0.488-2.091,0.955-4.147,1.455-6.194
			c0.788-3.245,1.681-6.467,2.362-9.734c0.296-1.431,0.947-2.137,2.363-2.229c0.383-0.023,0.759-0.141,1.218-0.23
			c0,5.983,0,11.898,0,17.898C219.747,189.442,217.341,189.602,214.77,189.771z"/>
	</g>
	<g>
		<path fill-rule="evenodd" clip-rule="evenodd" fill="#760100" d="M69.509,166.313c0.264-3.163,0.467-6.333,0.802-9.488
			c1.294-12.171,4.407-23.87,9.252-35.107c0.065-0.15,0.186-0.274,0.33-0.482c-0.282,10.07,3.492,16.515,11.289,19.316
			c6.425,2.309,15.751,0.995,21.208-7.791c-4.596,9.998-7.343,20.456-8.082,31.827c0.773-1.121,1.315-1.941,1.89-2.735
			c11.783-16.32,34.701-19.494,50.503-7.039c0.849,0.669,0.89,1.275,0.662,2.191c-2.593,10.402-5.161,20.812-7.724,31.222
			c-0.844,3.426,0.301,5.74,3.799,7.253c4.054,1.751,8.042,1.546,11.855-0.821c1.634-1.015,2.339-2.68,3.125-4.295
			c0.046-0.096,0-0.249-0.031-0.369c-2.121-8.457-4.245-16.915-6.365-25.374c-0.482-1.929-0.95-3.863-1.444-5.881
			c8.896,8.571,13.989,27.179,3.529,43.144c-11.008,16.799-35.867,21.728-52.719,7.178c3.1,9.379,7.398,18.171,13.15,26.331
			c-0.259,0.271-0.474,0.529-0.722,0.751c-8.205,7.332-7.953,19.71,0.596,26.666c5.875,4.779,12.636,7.996,19.604,10.801
			c8.951,3.604,18.208,6.133,27.748,7.621c0.375,0.059,0.738,0.191,1.221,0.319c-0.518,3.442-1.896,6.417-4.235,8.855
			c-5.084,5.304-11.254,7.014-18.264,4.783c-25.822-8.221-45.313-24.424-59.222-47.488c-9.779-16.219-16.01-33.815-19.347-52.404
			c-1.145-6.372-1.52-12.882-2.244-19.328c-0.049-0.427-0.109-0.853-0.165-1.28C69.509,171.896,69.509,169.105,69.509,166.313z"/>
		<path fill-rule="evenodd" clip-rule="evenodd" fill="#760100" d="M151.312,67.46c-27.182,6.345-49.615,19.965-66.089,42.86
			c0.442-0.769,0.869-1.547,1.326-2.308c9.546-15.916,21.68-29.433,37.096-39.88c3.429-2.322,6.984-4.49,11.055-5.507
			c5.854-1.463,11.125-0.189,15.762,3.688c0.332,0.279,0.7,0.518,1.05,0.775C151.444,67.211,151.379,67.335,151.312,67.46z"/>
		<path fill-rule="evenodd" clip-rule="evenodd" fill="#760100" d="M158.137,188.981c-2.539,0.158-4.958,0.309-7.513,0.468
			c2.467-10.051,4.922-20.056,7.377-30.062c0.046,0.005,0.091,0.009,0.136,0.015C158.137,169.241,158.137,179.08,158.137,188.981z"
			/>
		<path fill-rule="evenodd" clip-rule="evenodd" fill="#760100" d="M159.695,160.295c2.381,9.697,4.761,19.395,7.15,29.135
			c-2.494-0.154-4.871-0.299-7.36-0.453c0-9.523,0-19.073,0-28.623C159.557,160.335,159.625,160.314,159.695,160.295z"/>
	</g>
	<g>
		<path fill-rule="evenodd" clip-rule="evenodd" fill="#E1ECF8" d="M232.388,190.636c-2.403,0.301-4.803,0.808-7.211,0.853
			c-3.431,0.066-6.871-0.187-10.303-0.348c-0.622-0.029-1.231-0.27-1.861-0.417c2.91-11.8,5.782-23.446,8.66-35.13
			c0.566,0,1.077,0,1.775,0c0.608,2.462,1.237,4.978,1.856,7.496c2.129,8.66,4.247,17.324,6.394,25.98
			c0.114,0.463,0.453,0.872,0.689,1.306C232.388,190.462,232.388,190.55,232.388,190.636z M222.049,189.283
			c0-10.056,0-20.045,0-30.034c-0.073-0.017-0.144-0.033-0.216-0.051c-2.493,10.181-4.984,20.362-7.497,30.626
			C216.983,189.638,219.477,189.464,222.049,189.283z M230.792,189.809c-2.461-10.056-4.902-20.025-7.34-29.995
			c-0.076,0.011-0.15,0.022-0.227,0.034c0,9.798,0,19.596,0,29.444C225.766,189.464,228.212,189.633,230.792,189.809z"/>
		<path fill-rule="evenodd" clip-rule="evenodd" fill="#E1ECF8" d="M168.421,190.645c-3.116,1.242-16.151,1.223-19.12-0.038
			c1.278-5.244,2.545-10.497,3.834-15.744c1.468-5.979,2.94-11.959,4.452-17.927c0.129-0.503,0.48-1.179,0.893-1.333
			c0.859-0.32,1.329,0.133,1.567,1.117c1.995,8.262,4.056,16.507,6.099,24.757C166.892,184.501,167.646,187.525,168.421,190.645z
			 M158.291,159.421c-0.065-0.01-0.126-0.019-0.189-0.028c-2.477,10.102-4.952,20.203-7.45,30.387
			c2.685-0.181,5.134-0.346,7.64-0.515C158.291,179.267,158.291,169.344,158.291,159.421z M159.46,189.273
			c2.576,0.167,4.986,0.324,7.571,0.491c-2.484-10.107-4.942-20.104-7.4-30.102c-0.057,0.016-0.114,0.033-0.171,0.049
			C159.46,169.537,159.46,179.364,159.46,189.273z"/>
		<path fill-rule="evenodd" clip-rule="evenodd" fill="#E1ECF8" d="M188.501,147.37c1.08,0,2.096,0,3.192,0c0,0.87,0,1.837,0,2.868
			c-1.067,0-2.092,0-3.192,0C188.501,149.251,188.501,148.28,188.501,147.37z"/>
	</g>
	<g>
		<path fill-rule="evenodd" clip-rule="evenodd" d="M175.119,224.701c0-0.906,0-1.813,0-2.801c9.965,0,19.84,0,29.823,0
			c0,0.797,0,1.599,0,2.528c-1.893,0.09-3.819,0.182-5.749,0.273C191.169,224.701,183.143,224.701,175.119,224.701z"/>
		<path fill-rule="evenodd" clip-rule="evenodd" d="M232.17,190.942c-0.899,2.967-3.076,4.539-5.924,5.293
			c-3.836,1.016-7.516,0.703-10.857-1.616c-1.519-1.055-2.262-2.405-2.274-3.904c6.357,0.924,12.71,0.998,19.056-0.035
			C232.17,190.767,232.17,190.854,232.17,190.942z"/>
		<path fill-rule="evenodd" clip-rule="evenodd" d="M187.326,163.288c-4.434-0.555-8.155-2.567-11.615-5.279
			c-3.713-2.91-8.11-4.128-12.761-4.458c-0.487-0.036-1.129,0.292-1.494,0.656c-1.352,1.335-3.506,1.449-4.825,0.156
			c-1.392-1.363-1.339-3.582,0.118-4.875c1.389-1.233,3.488-0.995,4.802,0.403c0.442,0.471,1.173,0.879,1.805,0.934
			c5.747,0.501,10.953,2.278,15.459,6.005c2.522,2.088,5.853,3.38,8.141,3.444c-0.677-2.219-1.41-4.425-2.017-6.665
			c-0.591-2.175-0.206-2.991,2.037-3.228c2.255-0.237,4.593-0.141,6.842,0.181c1.666,0.24,1.946,0.911,1.529,2.538
			c-0.608,2.382-1.363,4.728-2.072,7.144c2.641-0.529,5.117-1.573,7.205-3.313c5.161-4.298,11.168-6.092,17.758-6.267
			c0.76-0.02,1.338-0.164,1.874-0.859c1.176-1.522,3.326-1.597,4.751-0.314c1.358,1.224,1.48,3.357,0.27,4.707
			c-1.24,1.383-3.46,1.53-4.762,0.121c-0.768-0.827-1.564-0.913-2.537-0.862c-5.768,0.302-11.014,1.937-15.545,5.679
			c-2.449,2.024-5.324,3.292-8.461,3.89c-0.688,0.132-1.061,0.347-1.061,1.157c0.025,15.875,0.024,31.751,0.03,47.625
			c0,0.127,0.039,0.258,0.081,0.52c2.703,0,5.425,0,8.289,0c0.025,0.577,0.045,1.026,0.06,1.332
			c-0.623,0.882-2.503-0.563-2.294,1.585c1.997,0,3.946,0,6.001,0c0,1.163,0,2.221,0,3.411c-9.858,0-19.738,0-29.716,0
			c0-1.055,0-2.12,0-3.336c1.943,0,3.923,0,5.981,0c0.22-2.017-1.352-0.957-2.139-1.522c-0.015-0.29-0.037-0.746-0.068-1.334
			c2.79,0,5.517,0,8.334,0C187.326,196.01,187.326,179.688,187.326,163.288z"/>
		<path fill-rule="evenodd" clip-rule="evenodd" d="M149.192,190.651c6.44,1.081,12.784,1.026,19.13,0.09
			c0.319,2.504-3.184,5.819-8.627,6.126C154.047,197.187,149.54,194.543,149.192,190.651z"/>
		<path fill-rule="evenodd" clip-rule="evenodd" d="M190.119,140.599c1.829,0.017,3.344,1.493,3.362,3.282
			c0.021,1.98-1.47,3.418-3.491,3.369c-1.925-0.048-3.29-1.421-3.277-3.301C186.723,142.038,188.204,140.583,190.119,140.599z"/>
	</g>
</g>
</svg>
